<?xml version="1.0" encoding="UTF-8" standalone="no"?>
<!DOCTYPE svg PUBLIC "-//W3C//DTD SVG 1.1//EN"
 "http://www.w3.org/Graphics/SVG/1.1/DTD/svg11.dtd">
<!-- Generated by graphviz version 14.1.2 (20260126.1125)
 -->
<!-- Title: snakemake_dag Pages: 1 -->
<svg width="939pt" height="622pt"
 viewBox="0.00 0.00 939.00 622.00" xmlns="http://www.w3.org/2000/svg" xmlns:xlink="http://www.w3.org/1999/xlink">
<g id="graph0" class="graph" transform="scale(1 1) rotate(0) translate(4 618)">
<title>snakemake_dag</title>
<polygon fill="white" stroke="none" points="-4,4 -4,-618 935,-618 935,4 -4,4"/>
<!-- 0 -->
<g id="node1" class="node">
<title>0</title>
<path fill="none" stroke="#70d856" stroke-width="2" d="M457.88,-36C457.88,-36 427.88,-36 427.88,-36 421.88,-36 415.88,-30 415.88,-24 415.88,-24 415.88,-12 415.88,-12 415.88,-6 421.88,0 427.88,0 427.88,0 457.88,0 457.88,0 463.88,0 469.88,-6 469.88,-12 469.88,-12 469.88,-24 469.88,-24 469.88,-30 463.88,-36 457.88,-36"/>
<text xml:space="preserve" text-anchor="middle" x="442.88" y="-15.62" font-family="sans" font-size="10.00">all</text>
</g>
<!-- 1 -->
<g id="node2" class="node">
<title>1</title>
<path fill="none" stroke="#56b1d8" stroke-width="2" d="M85.75,-252C85.75,-252 12,-252 12,-252 6,-252 0,-246 0,-240 0,-240 0,-228 0,-228 0,-222 6,-216 12,-216 12,-216 85.75,-216 85.75,-216 91.75,-216 97.75,-222 97.75,-228 97.75,-228 97.75,-240 97.75,-240 97.75,-246 91.75,-252 85.75,-252"/>
<text xml:space="preserve" text-anchor="middle" x="48.88" y="-231.62" font-family="sans" font-size="10.00">create_consensus</text>
</g>
<!-- 1&#45;&gt;0 -->
<g id="edge1" class="edge">
<title>1&#45;&gt;0</title>
<path fill="none" stroke="grey" stroke-width="2" d="M47.09,-215.11C44.84,-181.63 45.33,-109.48 85.88,-72 131.2,-30.1 318.23,-21.3 401.99,-19.47"/>
<polygon fill="grey" stroke="grey" stroke-width="2" points="402.02,-22.97 411.95,-19.28 401.89,-15.97 402.02,-22.97"/>
</g>
<!-- 2 -->
<g id="node3" class="node">
<title>2</title>
<path fill="none" stroke="#56d89a" stroke-width="2" d="M210.62,-396.5C210.62,-396.5 109.12,-396.5 109.12,-396.5 103.12,-396.5 97.12,-390.5 97.12,-384.5 97.12,-384.5 97.12,-372 97.12,-372 97.12,-366 103.12,-360 109.12,-360 109.12,-360 210.62,-360 210.62,-360 216.62,-360 222.62,-366 222.62,-372 222.62,-372 222.62,-384.5 222.62,-384.5 222.62,-390.5 216.62,-396.5 210.62,-396.5"/>
<text xml:space="preserve" text-anchor="middle" x="159.88" y="-383" font-family="sans" font-size="10.00">split_bam_by_reference</text>
<text xml:space="preserve" text-anchor="middle" x="159.88" y="-368.75" font-family="sans" font-size="10.00">reference: HSV_2_UL23</text>
</g>
<!-- 2&#45;&gt;1 -->
<g id="edge9" class="edge">
<title>2&#45;&gt;1</title>
<path fill="none" stroke="grey" stroke-width="2" d="M144.6,-359.18C136.04,-348.95 125.23,-335.86 115.88,-324 100.08,-303.98 82.78,-280.96 69.71,-263.36"/>
<polygon fill="grey" stroke="grey" stroke-width="2" points="72.55,-261.3 63.79,-255.34 66.92,-265.47 72.55,-261.3"/>
</g>
<!-- 20 -->
<g id="node21" class="node">
<title>20</title>
<path fill="none" stroke="#56d86b" stroke-width="2" d="M206.5,-324C206.5,-324 137.25,-324 137.25,-324 131.25,-324 125.25,-318 125.25,-312 125.25,-312 125.25,-300 125.25,-300 125.25,-294 131.25,-288 137.25,-288 137.25,-288 206.5,-288 206.5,-288 212.5,-288 218.5,-294 218.5,-300 218.5,-300 218.5,-312 218.5,-312 218.5,-318 212.5,-324 206.5,-324"/>
<text xml:space="preserve" text-anchor="middle" x="171.88" y="-303.62" font-family="sans" font-size="10.00">call_variants_ivar</text>
</g>
<!-- 2&#45;&gt;20 -->
<g id="edge26" class="edge">
<title>2&#45;&gt;20</title>
<path fill="none" stroke="grey" stroke-width="2" d="M162.97,-359.16C164.09,-352.55 165.4,-344.89 166.67,-337.5"/>
<polygon fill="grey" stroke="grey" stroke-width="2" points="170.09,-338.22 168.33,-327.77 163.19,-337.04 170.09,-338.22"/>
</g>
<!-- 3 -->
<g id="node4" class="node">
<title>3</title>
<path fill="none" stroke="#d85656" stroke-width="2" d="M253,-468.75C253,-468.75 210.75,-468.75 210.75,-468.75 204.75,-468.75 198.75,-462.75 198.75,-456.75 198.75,-456.75 198.75,-444.75 198.75,-444.75 198.75,-438.75 204.75,-432.75 210.75,-432.75 210.75,-432.75 253,-432.75 253,-432.75 259,-432.75 265,-438.75 265,-444.75 265,-444.75 265,-456.75 265,-456.75 265,-462.75 259,-468.75 253,-468.75"/>
<text xml:space="preserve" text-anchor="middle" x="231.88" y="-448.38" font-family="sans" font-size="10.00">map_reads</text>
</g>
<!-- 3&#45;&gt;2 -->
<g id="edge10" class="edge">
<title>3&#45;&gt;2</title>
<path fill="none" stroke="grey" stroke-width="2" d="M213.71,-431.96C205.75,-424.17 196.24,-414.86 187.45,-406.25"/>
<polygon fill="grey" stroke="grey" stroke-width="2" points="190.04,-403.89 180.45,-399.4 185.15,-408.89 190.04,-403.89"/>
</g>
<!-- 7 -->
<g id="node8" class="node">
<title>7</title>
<path fill="none" stroke="#56d89a" stroke-width="2" d="M354.62,-396.5C354.62,-396.5 253.12,-396.5 253.12,-396.5 247.12,-396.5 241.12,-390.5 241.12,-384.5 241.12,-384.5 241.12,-372 241.12,-372 241.12,-366 247.12,-360 253.12,-360 253.12,-360 354.62,-360 354.62,-360 360.62,-360 366.62,-366 366.62,-372 366.62,-372 366.62,-384.5 366.62,-384.5 366.62,-390.5 360.62,-396.5 354.62,-396.5"/>
<text xml:space="preserve" text-anchor="middle" x="303.88" y="-383" font-family="sans" font-size="10.00">split_bam_by_reference</text>
<text xml:space="preserve" text-anchor="middle" x="303.88" y="-368.75" font-family="sans" font-size="10.00">reference: HSV_2_UL30</text>
</g>
<!-- 3&#45;&gt;7 -->
<g id="edge14" class="edge">
<title>3&#45;&gt;7</title>
<path fill="none" stroke="grey" stroke-width="2" d="M250.04,-431.96C258,-424.17 267.51,-414.86 276.3,-406.25"/>
<polygon fill="grey" stroke="grey" stroke-width="2" points="278.6,-408.89 283.3,-399.4 273.71,-403.89 278.6,-408.89"/>
</g>
<!-- 4 -->
<g id="node5" class="node">
<title>4</title>
<path fill="none" stroke="#d88556" stroke-width="2" d="M211.38,-541.5C211.38,-541.5 24.38,-541.5 24.38,-541.5 18.38,-541.5 12.38,-535.5 12.38,-529.5 12.38,-529.5 12.38,-517 12.38,-517 12.38,-511 18.38,-505 24.38,-505 24.38,-505 211.38,-505 211.38,-505 217.38,-505 223.38,-511 223.38,-517 223.38,-517 223.38,-529.5 223.38,-529.5 223.38,-535.5 217.38,-541.5 211.38,-541.5"/>
<text xml:space="preserve" text-anchor="middle" x="117.88" y="-528" font-family="sans" font-size="10.00">qc_trim</text>
<text xml:space="preserve" text-anchor="middle" x="117.88" y="-513.75" font-family="sans" font-size="10.00">sample: 1545554&#45;HSV2_S82_not_trimmed</text>
</g>
<!-- 4&#45;&gt;3 -->
<g id="edge11" class="edge">
<title>4&#45;&gt;3</title>
<path fill="none" stroke="grey" stroke-width="2" d="M147.23,-504.09C160.9,-495.64 177.37,-485.46 192.13,-476.33"/>
<polygon fill="grey" stroke="grey" stroke-width="2" points="193.77,-479.43 200.44,-471.19 190.09,-473.48 193.77,-479.43"/>
</g>
<!-- 5 -->
<g id="node6" class="node">
<title>5</title>
<path fill="none" stroke="#56d8c9" stroke-width="2" d="M440.38,-541.5C440.38,-541.5 253.38,-541.5 253.38,-541.5 247.38,-541.5 241.38,-535.5 241.38,-529.5 241.38,-529.5 241.38,-517 241.38,-517 241.38,-511 247.38,-505 253.38,-505 253.38,-505 440.38,-505 440.38,-505 446.38,-505 452.38,-511 452.38,-517 452.38,-517 452.38,-529.5 452.38,-529.5 452.38,-535.5 446.38,-541.5 440.38,-541.5"/>
<text xml:space="preserve" text-anchor="middle" x="346.88" y="-528" font-family="sans" font-size="10.00">prepare_reference</text>
<text xml:space="preserve" text-anchor="middle" x="346.88" y="-513.75" font-family="sans" font-size="10.00">sample: 1545554&#45;HSV2_S82_not_trimmed</text>
</g>
<!-- 5&#45;&gt;3 -->
<g id="edge12" class="edge">
<title>5&#45;&gt;3</title>
<path fill="none" stroke="grey" stroke-width="2" d="M317.26,-504.09C303.47,-495.64 286.86,-485.46 271.97,-476.33"/>
<polygon fill="grey" stroke="grey" stroke-width="2" points="273.93,-473.42 263.57,-471.18 270.27,-479.39 273.93,-473.42"/>
</g>
<!-- 6 -->
<g id="node7" class="node">
<title>6</title>
<path fill="none" stroke="#56b1d8" stroke-width="2" d="M318.75,-180C318.75,-180 245,-180 245,-180 239,-180 233,-174 233,-168 233,-168 233,-156 233,-156 233,-150 239,-144 245,-144 245,-144 318.75,-144 318.75,-144 324.75,-144 330.75,-150 330.75,-156 330.75,-156 330.75,-168 330.75,-168 330.75,-174 324.75,-180 318.75,-180"/>
<text xml:space="preserve" text-anchor="middle" x="281.88" y="-159.62" font-family="sans" font-size="10.00">create_consensus</text>
</g>
<!-- 6&#45;&gt;0 -->
<g id="edge2" class="edge">
<title>6&#45;&gt;0</title>
<path fill="none" stroke="grey" stroke-width="2" d="M278.99,-143.2C276.86,-123.59 276.68,-92.14 292.88,-72 319.34,-39.07 367.73,-26.57 402.4,-21.84"/>
<polygon fill="grey" stroke="grey" stroke-width="2" points="402.4,-25.37 411.93,-20.74 401.59,-18.41 402.4,-25.37"/>
</g>
<!-- 7&#45;&gt;6 -->
<g id="edge13" class="edge">
<title>7&#45;&gt;6</title>
<path fill="none" stroke="grey" stroke-width="2" d="M302.04,-359.35C298.28,-322.8 289.7,-239.22 285.04,-193.78"/>
<polygon fill="grey" stroke="grey" stroke-width="2" points="288.54,-193.6 284.03,-184.01 281.57,-194.31 288.54,-193.6"/>
</g>
<!-- 24 -->
<g id="node25" class="node">
<title>24</title>
<path fill="none" stroke="#56d86b" stroke-width="2" d="M425.5,-324C425.5,-324 356.25,-324 356.25,-324 350.25,-324 344.25,-318 344.25,-312 344.25,-312 344.25,-300 344.25,-300 344.25,-294 350.25,-288 356.25,-288 356.25,-288 425.5,-288 425.5,-288 431.5,-288 437.5,-294 437.5,-300 437.5,-300 437.5,-312 437.5,-312 437.5,-318 431.5,-324 425.5,-324"/>
<text xml:space="preserve" text-anchor="middle" x="390.88" y="-303.62" font-family="sans" font-size="10.00">call_variants_ivar</text>
</g>
<!-- 7&#45;&gt;24 -->
<g id="edge30" class="edge">
<title>7&#45;&gt;24</title>
<path fill="none" stroke="grey" stroke-width="2" d="M326.28,-359.16C336.2,-351.15 348.05,-341.58 358.88,-332.84"/>
<polygon fill="grey" stroke="grey" stroke-width="2" points="360.91,-335.69 366.49,-326.69 356.51,-330.25 360.91,-335.69"/>
</g>
<!-- 8 -->
<g id="node9" class="node">
<title>8</title>
<path fill="none" stroke="#56b1d8" stroke-width="2" d="M549.75,-108C549.75,-108 476,-108 476,-108 470,-108 464,-102 464,-96 464,-96 464,-84 464,-84 464,-78 470,-72 476,-72 476,-72 549.75,-72 549.75,-72 555.75,-72 561.75,-78 561.75,-84 561.75,-84 561.75,-96 561.75,-96 561.75,-102 555.75,-108 549.75,-108"/>
<text xml:space="preserve" text-anchor="middle" x="512.88" y="-87.62" font-family="sans" font-size="10.00">create_consensus</text>
</g>
<!-- 8&#45;&gt;0 -->
<g id="edge3" class="edge">
<title>8&#45;&gt;0</title>
<path fill="none" stroke="grey" stroke-width="2" d="M495.21,-71.34C487.56,-63.69 478.43,-54.56 469.95,-46.08"/>
<polygon fill="grey" stroke="grey" stroke-width="2" points="472.46,-43.64 462.92,-39.04 467.51,-48.59 472.46,-43.64"/>
</g>
<!-- 9 -->
<g id="node10" class="node">
<title>9</title>
<path fill="none" stroke="#d8b456" stroke-width="2" d="M635,-396.25C635,-396.25 598.75,-396.25 598.75,-396.25 592.75,-396.25 586.75,-390.25 586.75,-384.25 586.75,-384.25 586.75,-372.25 586.75,-372.25 586.75,-366.25 592.75,-360.25 598.75,-360.25 598.75,-360.25 635,-360.25 635,-360.25 641,-360.25 647,-366.25 647,-372.25 647,-372.25 647,-384.25 647,-384.25 647,-390.25 641,-396.25 635,-396.25"/>
<text xml:space="preserve" text-anchor="middle" x="616.88" y="-375.88" font-family="sans" font-size="10.00">trim_bam</text>
</g>
<!-- 9&#45;&gt;8 -->
<g id="edge15" class="edge">
<title>9&#45;&gt;8</title>
<path fill="none" stroke="grey" stroke-width="2" d="M598.34,-359.55C589.16,-349.84 578.63,-337.13 571.88,-324 537.3,-256.73 522.11,-167.92 516.18,-121.79"/>
<polygon fill="grey" stroke="grey" stroke-width="2" points="519.67,-121.43 514.99,-111.92 512.72,-122.27 519.67,-121.43"/>
</g>
<!-- 28 -->
<g id="node29" class="node">
<title>28</title>
<path fill="none" stroke="#56d86b" stroke-width="2" d="M662.5,-324C662.5,-324 593.25,-324 593.25,-324 587.25,-324 581.25,-318 581.25,-312 581.25,-312 581.25,-300 581.25,-300 581.25,-294 587.25,-288 593.25,-288 593.25,-288 662.5,-288 662.5,-288 668.5,-288 674.5,-294 674.5,-300 674.5,-300 674.5,-312 674.5,-312 674.5,-318 668.5,-324 662.5,-324"/>
<text xml:space="preserve" text-anchor="middle" x="627.88" y="-303.62" font-family="sans" font-size="10.00">call_variants_ivar</text>
</g>
<!-- 9&#45;&gt;28 -->
<g id="edge34" class="edge">
<title>9&#45;&gt;28</title>
<path fill="none" stroke="grey" stroke-width="2" d="M619.65,-359.52C620.69,-352.92 621.89,-345.21 623.06,-337.78"/>
<polygon fill="grey" stroke="grey" stroke-width="2" points="626.5,-338.38 624.59,-327.96 619.59,-337.29 626.5,-338.38"/>
</g>
<!-- 10 -->
<g id="node11" class="node">
<title>10</title>
<path fill="none" stroke="#56d89a" stroke-width="2" d="M667.62,-469C667.62,-469 566.12,-469 566.12,-469 560.12,-469 554.12,-463 554.12,-457 554.12,-457 554.12,-444.5 554.12,-444.5 554.12,-438.5 560.12,-432.5 566.12,-432.5 566.12,-432.5 667.62,-432.5 667.62,-432.5 673.62,-432.5 679.62,-438.5 679.62,-444.5 679.62,-444.5 679.62,-457 679.62,-457 679.62,-463 673.62,-469 667.62,-469"/>
<text xml:space="preserve" text-anchor="middle" x="616.88" y="-455.5" font-family="sans" font-size="10.00">split_bam_by_reference</text>
<text xml:space="preserve" text-anchor="middle" x="616.88" y="-441.25" font-family="sans" font-size="10.00">reference: HSV_2_UL23</text>
</g>
<!-- 10&#45;&gt;9 -->
<g id="edge16" class="edge">
<title>10&#45;&gt;9</title>
<path fill="none" stroke="grey" stroke-width="2" d="M616.88,-431.59C616.88,-424.96 616.88,-417.27 616.88,-409.86"/>
<polygon fill="grey" stroke="grey" stroke-width="2" points="620.38,-410.13 616.88,-400.13 613.38,-410.13 620.38,-410.13"/>
</g>
<!-- 11 -->
<g id="node12" class="node">
<title>11</title>
<path fill="none" stroke="#d85656" stroke-width="2" d="M710,-541.25C710,-541.25 667.75,-541.25 667.75,-541.25 661.75,-541.25 655.75,-535.25 655.75,-529.25 655.75,-529.25 655.75,-517.25 655.75,-517.25 655.75,-511.25 661.75,-505.25 667.75,-505.25 667.75,-505.25 710,-505.25 710,-505.25 716,-505.25 722,-511.25 722,-517.25 722,-517.25 722,-529.25 722,-529.25 722,-535.25 716,-541.25 710,-541.25"/>
<text xml:space="preserve" text-anchor="middle" x="688.88" y="-520.88" font-family="sans" font-size="10.00">map_reads</text>
</g>
<!-- 11&#45;&gt;10 -->
<g id="edge17" class="edge">
<title>11&#45;&gt;10</title>
<path fill="none" stroke="grey" stroke-width="2" d="M670.71,-504.46C662.75,-496.67 653.24,-487.36 644.45,-478.75"/>
<polygon fill="grey" stroke="grey" stroke-width="2" points="647.04,-476.39 637.45,-471.9 642.15,-481.39 647.04,-476.39"/>
</g>
<!-- 16 -->
<g id="node17" class="node">
<title>16</title>
<path fill="none" stroke="#56d89a" stroke-width="2" d="M811.62,-469C811.62,-469 710.12,-469 710.12,-469 704.12,-469 698.12,-463 698.12,-457 698.12,-457 698.12,-444.5 698.12,-444.5 698.12,-438.5 704.12,-432.5 710.12,-432.5 710.12,-432.5 811.62,-432.5 811.62,-432.5 817.62,-432.5 823.62,-438.5 823.62,-444.5 823.62,-444.5 823.62,-457 823.62,-457 823.62,-463 817.62,-469 811.62,-469"/>
<text xml:space="preserve" text-anchor="middle" x="760.88" y="-455.5" font-family="sans" font-size="10.00">split_bam_by_reference</text>
<text xml:space="preserve" text-anchor="middle" x="760.88" y="-441.25" font-family="sans" font-size="10.00">reference: HSV_2_UL30</text>
</g>
<!-- 11&#45;&gt;16 -->
<g id="edge22" class="edge">
<title>11&#45;&gt;16</title>
<path fill="none" stroke="grey" stroke-width="2" d="M707.04,-504.46C715,-496.67 724.51,-487.36 733.3,-478.75"/>
<polygon fill="grey" stroke="grey" stroke-width="2" points="735.6,-481.39 740.3,-471.9 730.71,-476.39 735.6,-481.39"/>
</g>
<!-- 12 -->
<g id="node13" class="node">
<title>12</title>
<path fill="none" stroke="#d88556" stroke-width="2" d="M667.25,-614C667.25,-614 500.5,-614 500.5,-614 494.5,-614 488.5,-608 488.5,-602 488.5,-602 488.5,-589.5 488.5,-589.5 488.5,-583.5 494.5,-577.5 500.5,-577.5 500.5,-577.5 667.25,-577.5 667.25,-577.5 673.25,-577.5 679.25,-583.5 679.25,-589.5 679.25,-589.5 679.25,-602 679.25,-602 679.25,-608 673.25,-614 667.25,-614"/>
<text xml:space="preserve" text-anchor="middle" x="583.88" y="-600.5" font-family="sans" font-size="10.00">qc_trim</text>
<text xml:space="preserve" text-anchor="middle" x="583.88" y="-586.25" font-family="sans" font-size="10.00">sample: 1545554&#45;HSV2_S82_trimmed</text>
</g>
<!-- 12&#45;&gt;11 -->
<g id="edge18" class="edge">
<title>12&#45;&gt;11</title>
<path fill="none" stroke="grey" stroke-width="2" d="M610.92,-576.59C623.38,-568.22 638.37,-558.16 651.87,-549.1"/>
<polygon fill="grey" stroke="grey" stroke-width="2" points="653.43,-552.27 659.78,-543.79 649.52,-546.46 653.43,-552.27"/>
</g>
<!-- 13 -->
<g id="node14" class="node">
<title>13</title>
<path fill="none" stroke="#56d8c9" stroke-width="2" d="M876.25,-614C876.25,-614 709.5,-614 709.5,-614 703.5,-614 697.5,-608 697.5,-602 697.5,-602 697.5,-589.5 697.5,-589.5 697.5,-583.5 703.5,-577.5 709.5,-577.5 709.5,-577.5 876.25,-577.5 876.25,-577.5 882.25,-577.5 888.25,-583.5 888.25,-589.5 888.25,-589.5 888.25,-602 888.25,-602 888.25,-608 882.25,-614 876.25,-614"/>
<text xml:space="preserve" text-anchor="middle" x="792.88" y="-600.5" font-family="sans" font-size="10.00">prepare_reference</text>
<text xml:space="preserve" text-anchor="middle" x="792.88" y="-586.25" font-family="sans" font-size="10.00">sample: 1545554&#45;HSV2_S82_trimmed</text>
</g>
<!-- 13&#45;&gt;11 -->
<g id="edge19" class="edge">
<title>13&#45;&gt;11</title>
<path fill="none" stroke="grey" stroke-width="2" d="M766.09,-576.59C753.87,-568.31 739.19,-558.36 725.93,-549.37"/>
<polygon fill="grey" stroke="grey" stroke-width="2" points="727.95,-546.51 717.71,-543.8 724.03,-552.31 727.95,-546.51"/>
</g>
<!-- 14 -->
<g id="node15" class="node">
<title>14</title>
<path fill="none" stroke="#56b1d8" stroke-width="2" d="M787.75,-324C787.75,-324 714,-324 714,-324 708,-324 702,-318 702,-312 702,-312 702,-300 702,-300 702,-294 708,-288 714,-288 714,-288 787.75,-288 787.75,-288 793.75,-288 799.75,-294 799.75,-300 799.75,-300 799.75,-312 799.75,-312 799.75,-318 793.75,-324 787.75,-324"/>
<text xml:space="preserve" text-anchor="middle" x="750.88" y="-303.62" font-family="sans" font-size="10.00">create_consensus</text>
</g>
<!-- 14&#45;&gt;0 -->
<g id="edge4" class="edge">
<title>14&#45;&gt;0</title>
<path fill="none" stroke="grey" stroke-width="2" d="M755.97,-287.04C767.03,-243.84 788.02,-133.18 732.88,-72 700.2,-35.75 555.27,-24.1 483.47,-20.51"/>
<polygon fill="grey" stroke="grey" stroke-width="2" points="483.72,-17.02 473.57,-20.05 483.4,-24.01 483.72,-17.02"/>
</g>
<!-- 15 -->
<g id="node16" class="node">
<title>15</title>
<path fill="none" stroke="#d8b456" stroke-width="2" d="M779,-396.25C779,-396.25 742.75,-396.25 742.75,-396.25 736.75,-396.25 730.75,-390.25 730.75,-384.25 730.75,-384.25 730.75,-372.25 730.75,-372.25 730.75,-366.25 736.75,-360.25 742.75,-360.25 742.75,-360.25 779,-360.25 779,-360.25 785,-360.25 791,-366.25 791,-372.25 791,-372.25 791,-384.25 791,-384.25 791,-390.25 785,-396.25 779,-396.25"/>
<text xml:space="preserve" text-anchor="middle" x="760.88" y="-375.88" font-family="sans" font-size="10.00">trim_bam</text>
</g>
<!-- 15&#45;&gt;14 -->
<g id="edge20" class="edge">
<title>15&#45;&gt;14</title>
<path fill="none" stroke="grey" stroke-width="2" d="M758.35,-359.52C757.41,-352.92 756.31,-345.21 755.26,-337.78"/>
<polygon fill="grey" stroke="grey" stroke-width="2" points="758.73,-337.37 753.86,-327.96 751.8,-338.36 758.73,-337.37"/>
</g>
<!-- 32 -->
<g id="node33" class="node">
<title>32</title>
<path fill="none" stroke="#56d86b" stroke-width="2" d="M899.5,-324C899.5,-324 830.25,-324 830.25,-324 824.25,-324 818.25,-318 818.25,-312 818.25,-312 818.25,-300 818.25,-300 818.25,-294 824.25,-288 830.25,-288 830.25,-288 899.5,-288 899.5,-288 905.5,-288 911.5,-294 911.5,-300 911.5,-300 911.5,-312 911.5,-312 911.5,-318 905.5,-324 899.5,-324"/>
<text xml:space="preserve" text-anchor="middle" x="864.88" y="-303.62" font-family="sans" font-size="10.00">call_variants_ivar</text>
</g>
<!-- 15&#45;&gt;32 -->
<g id="edge38" class="edge">
<title>15&#45;&gt;32</title>
<path fill="none" stroke="grey" stroke-width="2" d="M787.39,-359.34C799.61,-351.08 814.33,-341.14 827.65,-332.15"/>
<polygon fill="grey" stroke="grey" stroke-width="2" points="829.57,-335.07 835.9,-326.57 825.66,-329.27 829.57,-335.07"/>
</g>
<!-- 16&#45;&gt;15 -->
<g id="edge21" class="edge">
<title>16&#45;&gt;15</title>
<path fill="none" stroke="grey" stroke-width="2" d="M760.88,-431.59C760.88,-424.96 760.88,-417.27 760.88,-409.86"/>
<polygon fill="grey" stroke="grey" stroke-width="2" points="764.38,-410.13 760.88,-400.13 757.38,-410.13 764.38,-410.13"/>
</g>
<!-- 17 -->
<g id="node18" class="node">
<title>17</title>
<path fill="none" stroke="#ced856" stroke-width="2" d="M227,-108C227,-108 106.75,-108 106.75,-108 100.75,-108 94.75,-102 94.75,-96 94.75,-96 94.75,-84 94.75,-84 94.75,-78 100.75,-72 106.75,-72 106.75,-72 227,-72 227,-72 233,-72 239,-78 239,-84 239,-84 239,-96 239,-96 239,-102 233,-108 227,-108"/>
<text xml:space="preserve" text-anchor="middle" x="166.88" y="-87.62" font-family="sans" font-size="10.00">bcftools_normalize_variants</text>
</g>
<!-- 17&#45;&gt;0 -->
<g id="edge5" class="edge">
<title>17&#45;&gt;0</title>
<path fill="none" stroke="grey" stroke-width="2" d="M237.59,-71.06C289.85,-57.81 359.14,-40.24 402.36,-29.28"/>
<polygon fill="grey" stroke="grey" stroke-width="2" points="403.12,-32.69 411.95,-26.84 401.4,-25.91 403.12,-32.69"/>
</g>
<!-- 18 -->
<g id="node19" class="node">
<title>18</title>
<path fill="none" stroke="#5682d8" stroke-width="2" d="M202.88,-180C202.88,-180 114.88,-180 114.88,-180 108.88,-180 102.88,-174 102.88,-168 102.88,-168 102.88,-156 102.88,-156 102.88,-150 108.88,-144 114.88,-144 114.88,-144 202.88,-144 202.88,-144 208.88,-144 214.88,-150 214.88,-156 214.88,-156 214.88,-168 214.88,-168 214.88,-174 208.88,-180 202.88,-180"/>
<text xml:space="preserve" text-anchor="middle" x="158.88" y="-159.62" font-family="sans" font-size="10.00">filter_variants_lofreq</text>
</g>
<!-- 18&#45;&gt;17 -->
<g id="edge23" class="edge">
<title>18&#45;&gt;17</title>
<path fill="none" stroke="grey" stroke-width="2" d="M160.89,-143.34C161.65,-136.75 162.52,-129.08 163.37,-121.67"/>
<polygon fill="grey" stroke="grey" stroke-width="2" points="166.83,-122.24 164.49,-111.91 159.87,-121.45 166.83,-122.24"/>
</g>
<!-- 19 -->
<g id="node20" class="node">
<title>19</title>
<path fill="none" stroke="#9fd856" stroke-width="2" d="M220.12,-252C220.12,-252 127.62,-252 127.62,-252 121.62,-252 115.62,-246 115.62,-240 115.62,-240 115.62,-228 115.62,-228 115.62,-222 121.62,-216 127.62,-216 127.62,-216 220.12,-216 220.12,-216 226.12,-216 232.12,-222 232.12,-228 232.12,-228 232.12,-240 232.12,-240 232.12,-246 226.12,-252 220.12,-252"/>
<text xml:space="preserve" text-anchor="middle" x="173.88" y="-231.62" font-family="sans" font-size="10.00">transform_ivar_to_vcf</text>
</g>
<!-- 19&#45;&gt;18 -->
<g id="edge24" class="edge">
<title>19&#45;&gt;18</title>
<path fill="none" stroke="grey" stroke-width="2" d="M170.09,-215.34C168.66,-208.67 166.99,-200.89 165.39,-193.39"/>
<polygon fill="grey" stroke="grey" stroke-width="2" points="168.86,-192.91 163.35,-183.86 162.02,-194.37 168.86,-192.91"/>
</g>
<!-- 20&#45;&gt;19 -->
<g id="edge25" class="edge">
<title>20&#45;&gt;19</title>
<path fill="none" stroke="grey" stroke-width="2" d="M172.38,-287.34C172.57,-280.75 172.79,-273.08 173,-265.67"/>
<polygon fill="grey" stroke="grey" stroke-width="2" points="176.49,-266.02 173.28,-255.93 169.49,-265.82 176.49,-266.02"/>
</g>
<!-- 21 -->
<g id="node22" class="node">
<title>21</title>
<path fill="none" stroke="#ced856" stroke-width="2" d="M434,-108C434,-108 313.75,-108 313.75,-108 307.75,-108 301.75,-102 301.75,-96 301.75,-96 301.75,-84 301.75,-84 301.75,-78 307.75,-72 313.75,-72 313.75,-72 434,-72 434,-72 440,-72 446,-78 446,-84 446,-84 446,-96 446,-96 446,-102 440,-108 434,-108"/>
<text xml:space="preserve" text-anchor="middle" x="373.88" y="-87.62" font-family="sans" font-size="10.00">bcftools_normalize_variants</text>
</g>
<!-- 21&#45;&gt;0 -->
<g id="edge6" class="edge">
<title>21&#45;&gt;0</title>
<path fill="none" stroke="grey" stroke-width="2" d="M391.29,-71.34C398.83,-63.69 407.83,-54.56 416.18,-46.08"/>
<polygon fill="grey" stroke="grey" stroke-width="2" points="418.58,-48.64 423.1,-39.06 413.59,-43.72 418.58,-48.64"/>
</g>
<!-- 22 -->
<g id="node23" class="node">
<title>22</title>
<path fill="none" stroke="#5682d8" stroke-width="2" d="M448.88,-180C448.88,-180 360.88,-180 360.88,-180 354.88,-180 348.88,-174 348.88,-168 348.88,-168 348.88,-156 348.88,-156 348.88,-150 354.88,-144 360.88,-144 360.88,-144 448.88,-144 448.88,-144 454.88,-144 460.88,-150 460.88,-156 460.88,-156 460.88,-168 460.88,-168 460.88,-174 454.88,-180 448.88,-180"/>
<text xml:space="preserve" text-anchor="middle" x="404.88" y="-159.62" font-family="sans" font-size="10.00">filter_variants_lofreq</text>
</g>
<!-- 22&#45;&gt;21 -->
<g id="edge27" class="edge">
<title>22&#45;&gt;21</title>
<path fill="none" stroke="grey" stroke-width="2" d="M397.05,-143.34C393.99,-136.43 390.4,-128.31 386.96,-120.56"/>
<polygon fill="grey" stroke="grey" stroke-width="2" points="390.28,-119.4 383.03,-111.67 383.88,-122.23 390.28,-119.4"/>
</g>
<!-- 23 -->
<g id="node24" class="node">
<title>23</title>
<path fill="none" stroke="#9fd856" stroke-width="2" d="M442.12,-252C442.12,-252 349.62,-252 349.62,-252 343.62,-252 337.62,-246 337.62,-240 337.62,-240 337.62,-228 337.62,-228 337.62,-222 343.62,-216 349.62,-216 349.62,-216 442.12,-216 442.12,-216 448.12,-216 454.12,-222 454.12,-228 454.12,-228 454.12,-240 454.12,-240 454.12,-246 448.12,-252 442.12,-252"/>
<text xml:space="preserve" text-anchor="middle" x="395.88" y="-231.62" font-family="sans" font-size="10.00">transform_ivar_to_vcf</text>
</g>
<!-- 23&#45;&gt;22 -->
<g id="edge28" class="edge">
<title>23&#45;&gt;22</title>
<path fill="none" stroke="grey" stroke-width="2" d="M398.15,-215.34C398.99,-208.75 399.98,-201.08 400.93,-193.67"/>
<polygon fill="grey" stroke="grey" stroke-width="2" points="404.38,-194.27 402.19,-183.9 397.44,-193.38 404.38,-194.27"/>
</g>
<!-- 24&#45;&gt;23 -->
<g id="edge29" class="edge">
<title>24&#45;&gt;23</title>
<path fill="none" stroke="grey" stroke-width="2" d="M392.14,-287.34C392.61,-280.75 393.16,-273.08 393.68,-265.67"/>
<polygon fill="grey" stroke="grey" stroke-width="2" points="397.16,-266.15 394.38,-255.92 390.18,-265.65 397.16,-266.15"/>
</g>
<!-- 25 -->
<g id="node26" class="node">
<title>25</title>
<path fill="none" stroke="#ced856" stroke-width="2" d="M712,-108C712,-108 591.75,-108 591.75,-108 585.75,-108 579.75,-102 579.75,-96 579.75,-96 579.75,-84 579.75,-84 579.75,-78 585.75,-72 591.75,-72 591.75,-72 712,-72 712,-72 718,-72 724,-78 724,-84 724,-84 724,-96 724,-96 724,-102 718,-108 712,-108"/>
<text xml:space="preserve" text-anchor="middle" x="651.88" y="-87.62" font-family="sans" font-size="10.00">bcftools_normalize_variants</text>
</g>
<!-- 25&#45;&gt;0 -->
<g id="edge7" class="edge">
<title>25&#45;&gt;0</title>
<path fill="none" stroke="grey" stroke-width="2" d="M598.32,-71.06C562.34,-59.01 515.69,-43.39 482.92,-32.41"/>
<polygon fill="grey" stroke="grey" stroke-width="2" points="484.12,-29.12 473.53,-29.27 481.9,-35.76 484.12,-29.12"/>
</g>
<!-- 26 -->
<g id="node27" class="node">
<title>26</title>
<path fill="none" stroke="#5682d8" stroke-width="2" d="M691.88,-180C691.88,-180 603.88,-180 603.88,-180 597.88,-180 591.88,-174 591.88,-168 591.88,-168 591.88,-156 591.88,-156 591.88,-150 597.88,-144 603.88,-144 603.88,-144 691.88,-144 691.88,-144 697.88,-144 703.88,-150 703.88,-156 703.88,-156 703.88,-168 703.88,-168 703.88,-174 697.88,-180 691.88,-180"/>
<text xml:space="preserve" text-anchor="middle" x="647.88" y="-159.62" font-family="sans" font-size="10.00">filter_variants_lofreq</text>
</g>
<!-- 26&#45;&gt;25 -->
<g id="edge31" class="edge">
<title>26&#45;&gt;25</title>
<path fill="none" stroke="grey" stroke-width="2" d="M648.88,-143.34C649.26,-136.75 649.7,-129.08 650.12,-121.67"/>
<polygon fill="grey" stroke="grey" stroke-width="2" points="653.6,-122.11 650.68,-111.92 646.61,-121.71 653.6,-122.11"/>
</g>
<!-- 27 -->
<g id="node28" class="node">
<title>27</title>
<path fill="none" stroke="#9fd856" stroke-width="2" d="M676.12,-252C676.12,-252 583.62,-252 583.62,-252 577.62,-252 571.62,-246 571.62,-240 571.62,-240 571.62,-228 571.62,-228 571.62,-222 577.62,-216 583.62,-216 583.62,-216 676.12,-216 676.12,-216 682.12,-216 688.12,-222 688.12,-228 688.12,-228 688.12,-240 688.12,-240 688.12,-246 682.12,-252 676.12,-252"/>
<text xml:space="preserve" text-anchor="middle" x="629.88" y="-231.62" font-family="sans" font-size="10.00">transform_ivar_to_vcf</text>
</g>
<!-- 27&#45;&gt;26 -->
<g id="edge32" class="edge">
<title>27&#45;&gt;26</title>
<path fill="none" stroke="grey" stroke-width="2" d="M634.42,-215.34C636.13,-208.67 638.13,-200.89 640.06,-193.39"/>
<polygon fill="grey" stroke="grey" stroke-width="2" points="643.42,-194.39 642.52,-183.83 636.64,-192.65 643.42,-194.39"/>
</g>
<!-- 28&#45;&gt;27 -->
<g id="edge33" class="edge">
<title>28&#45;&gt;27</title>
<path fill="none" stroke="grey" stroke-width="2" d="M628.38,-287.34C628.57,-280.75 628.79,-273.08 629,-265.67"/>
<polygon fill="grey" stroke="grey" stroke-width="2" points="632.49,-266.02 629.28,-255.93 625.49,-265.82 632.49,-266.02"/>
</g>
<!-- 29 -->
<g id="node30" class="node">
<title>29</title>
<path fill="none" stroke="#ced856" stroke-width="2" d="M919,-108C919,-108 798.75,-108 798.75,-108 792.75,-108 786.75,-102 786.75,-96 786.75,-96 786.75,-84 786.75,-84 786.75,-78 792.75,-72 798.75,-72 798.75,-72 919,-72 919,-72 925,-72 931,-78 931,-84 931,-84 931,-96 931,-96 931,-102 925,-108 919,-108"/>
<text xml:space="preserve" text-anchor="middle" x="858.88" y="-87.62" font-family="sans" font-size="10.00">bcftools_normalize_variants</text>
</g>
<!-- 29&#45;&gt;0 -->
<g id="edge8" class="edge">
<title>29&#45;&gt;0</title>
<path fill="none" stroke="grey" stroke-width="2" d="M785.79,-75.51C779.06,-74.31 772.34,-73.12 765.88,-72 664.37,-54.4 544.65,-35.15 483.41,-25.41"/>
<polygon fill="grey" stroke="grey" stroke-width="2" points="483.97,-21.95 473.55,-23.84 482.87,-28.87 483.97,-21.95"/>
</g>
<!-- 30 -->
<g id="node31" class="node">
<title>30</title>
<path fill="none" stroke="#5682d8" stroke-width="2" d="M905.88,-180C905.88,-180 817.88,-180 817.88,-180 811.88,-180 805.88,-174 805.88,-168 805.88,-168 805.88,-156 805.88,-156 805.88,-150 811.88,-144 817.88,-144 817.88,-144 905.88,-144 905.88,-144 911.88,-144 917.88,-150 917.88,-156 917.88,-156 917.88,-168 917.88,-168 917.88,-174 911.88,-180 905.88,-180"/>
<text xml:space="preserve" text-anchor="middle" x="861.88" y="-159.62" font-family="sans" font-size="10.00">filter_variants_lofreq</text>
</g>
<!-- 30&#45;&gt;29 -->
<g id="edge35" class="edge">
<title>30&#45;&gt;29</title>
<path fill="none" stroke="grey" stroke-width="2" d="M861.12,-143.34C860.84,-136.75 860.51,-129.08 860.19,-121.67"/>
<polygon fill="grey" stroke="grey" stroke-width="2" points="863.7,-121.77 859.77,-111.93 856.7,-122.07 863.7,-121.77"/>
</g>
<!-- 31 -->
<g id="node32" class="node">
<title>31</title>
<path fill="none" stroke="#9fd856" stroke-width="2" d="M910.12,-252C910.12,-252 817.62,-252 817.62,-252 811.62,-252 805.62,-246 805.62,-240 805.62,-240 805.62,-228 805.62,-228 805.62,-222 811.62,-216 817.62,-216 817.62,-216 910.12,-216 910.12,-216 916.12,-216 922.12,-222 922.12,-228 922.12,-228 922.12,-240 922.12,-240 922.12,-246 916.12,-252 910.12,-252"/>
<text xml:space="preserve" text-anchor="middle" x="863.88" y="-231.62" font-family="sans" font-size="10.00">transform_ivar_to_vcf</text>
</g>
<!-- 31&#45;&gt;30 -->
<g id="edge36" class="edge">
<title>31&#45;&gt;30</title>
<path fill="none" stroke="grey" stroke-width="2" d="M863.37,-215.34C863.18,-208.75 862.96,-201.08 862.75,-193.67"/>
<polygon fill="grey" stroke="grey" stroke-width="2" points="866.26,-193.82 862.47,-183.93 859.26,-194.02 866.26,-193.82"/>
</g>
<!-- 32&#45;&gt;31 -->
<g id="edge37" class="edge">
<title>32&#45;&gt;31</title>
<path fill="none" stroke="grey" stroke-width="2" d="M864.62,-287.34C864.53,-280.75 864.42,-273.08 864.31,-265.67"/>
<polygon fill="grey" stroke="grey" stroke-width="2" points="867.82,-265.88 864.17,-255.93 860.82,-265.98 867.82,-265.88"/>
</g>
</g>
</svg>
